<svg width="2325" height="6824" viewBox="0 0 2325 6824" fill="none" xmlns="http://www.w3.org/2000/svg">
<g filter="url(#filter0_f_1409_215)">
<circle cx="1708" cy="3860" r="178" fill="#2A3E84"/>
</g>
<g filter="url(#filter1_f_1409_215)">
<circle cx="553" cy="4561" r="178" fill="#2A3E84"/>
</g>
<g filter="url(#filter2_f_1409_215)">
<circle cx="1728" cy="4890" r="178" fill="#2A3E84"/>
</g>
<g filter="url(#filter3_f_1409_215)">
<circle cx="1728" cy="6296" r="178" fill="#2A3E84"/>
</g>
<g filter="url(#filter4_f_1409_215)">
<circle cx="554" cy="5983" r="204" fill="#2A3E84"/>
</g>
<g filter="url(#filter5_f_1409_215)">
<circle cx="1711" cy="528" r="178" fill="#2A3E84"/>
</g>
<g filter="url(#filter6_f_1409_215)">
<circle cx="563" cy="1989" r="178" fill="#2A3E84"/>
</g>
<g filter="url(#filter7_f_1409_215)">
<circle cx="563" cy="2818" r="178" fill="#2A3E84"/>
</g>
<path d="M1084.38 700.29L1083.59 706.898L1078.47 710.017L1084.34 711.217L1087.33 717.165L1088.12 710.557L1093.24 707.438L1087.37 706.237L1084.38 700.29Z" fill="#15BFFD"/>
<path d="M1349.38 713.29L1348.59 719.898L1343.47 723.017L1349.34 724.217L1352.33 730.165L1353.12 723.557L1358.24 720.438L1352.37 719.237L1349.38 713.29Z" fill="#15BFFD"/>
<path d="M454.635 1099.77L453.6 1108.39L446.924 1112.46L454.585 1114.03L458.482 1121.79L459.517 1113.17L466.193 1109.09L458.532 1107.53L454.635 1099.77Z" fill="white"/>
<path d="M687.548 753.668L686.522 762.214L679.906 766.249L687.498 767.801L691.361 775.493L692.386 766.947L699.002 762.912L691.41 761.36L687.548 753.668Z" fill="#15BFFD"/>
<g filter="url(#filter8_dddddd_1409_215)">
<path d="M1767.51 709.059L1765.63 724.732L1753.5 732.13L1767.42 734.976L1774.5 749.082L1776.38 733.41L1788.52 726.011L1774.59 723.165L1767.51 709.059Z" fill="#15BFFD"/>
</g>
<path d="M1689.02 1488.59L1687.05 1505.01L1674.33 1512.77L1688.92 1515.75L1696.35 1530.53L1698.32 1514.11L1711.03 1506.36L1696.44 1503.37L1689.02 1488.59Z" fill="#15BFFD"/>
<path d="M1452.71 1410.4L1451.93 1416.93L1446.87 1420.02L1452.67 1421.2L1455.63 1427.08L1456.41 1420.55L1461.47 1417.47L1455.67 1416.28L1452.71 1410.4Z" fill="#15BFFD"/>
<path d="M1721.59 2657.85L1720.45 2667.33L1713.12 2671.81L1721.54 2673.53L1725.82 2682.06L1726.96 2672.58L1734.3 2668.1L1725.88 2666.38L1721.59 2657.85Z" fill="#15BFFD"/>
<path d="M1310.97 2817.96L1310.24 2824L1305.56 2826.85L1310.93 2827.95L1313.66 2833.39L1314.39 2827.35L1319.06 2824.49L1313.7 2823.4L1310.97 2817.96Z" fill="#15BFFD"/>
<path d="M555.079 4285.55L553.759 4296.55L545.242 4301.74L555.016 4303.74L559.988 4313.64L561.308 4302.64L569.825 4297.45L560.052 4295.45L555.079 4285.55Z" fill="#15BFFD"/>
<path d="M1770.29 4841.15L1768.97 4852.15L1760.45 4857.34L1770.23 4859.34L1775.2 4869.24L1776.52 4858.24L1785.04 4853.05L1775.26 4851.05L1770.29 4841.15Z" fill="#15BFFD"/>
<path d="M1304.15 4338.7L1306.4 4342.88L1304.69 4346.79L1308.6 4345.09L1312.78 4347.33L1310.54 4343.15L1312.24 4339.24L1308.33 4340.95L1304.15 4338.7Z" fill="#15BFFD"/>
<path d="M1391.97 5986.96L1390.45 5999.6L1380.67 6005.56L1391.89 6007.86L1397.6 6019.23L1399.12 6006.59L1408.91 6000.63L1397.68 5998.33L1391.97 5986.96Z" fill="#15BFFD"/>
<path d="M1201.28 6140.29L1200.63 6145.72L1196.43 6148.28L1201.25 6149.27L1203.7 6154.15L1204.35 6148.72L1208.55 6146.16L1203.73 6145.18L1201.28 6140.29Z" fill="#15BFFD"/>
<path d="M681.062 6237.06L680.411 6242.48L676.21 6245.05L681.031 6246.03L683.483 6250.92L684.134 6245.49L688.334 6242.93L683.514 6241.94L681.062 6237.06Z" fill="#15BFFD"/>
<path d="M1613.75 3049.18L1613.03 3055.22L1608.35 3058.07L1613.72 3059.17L1616.45 3064.61L1617.17 3058.57L1621.85 3055.72L1616.48 3054.62L1613.75 3049.18Z" fill="#15BFFD"/>
<path d="M499.751 2641.18L499.026 2647.22L494.348 2650.07L499.716 2651.17L502.447 2656.61L503.172 2650.57L507.85 2647.72L502.482 2646.62L499.751 2641.18Z" fill="#15BFFD"/>
<path d="M580.751 5810.18L580.026 5816.22L575.348 5819.07L580.716 5820.17L583.447 5825.61L584.172 5819.57L588.85 5816.72L583.482 5815.62L580.751 5810.18Z" fill="#15BFFD"/>
<path d="M692.581 2222.08L691.301 2232.75L683.041 2237.79L692.519 2239.73L697.342 2249.33L698.622 2238.66L706.882 2233.62L697.404 2231.69L692.581 2222.08Z" fill="#15BFFD"/>
<path d="M1320.55 1262.67L1319.94 1267.74L1316.01 1270.13L1320.52 1271.05L1322.81 1275.62L1323.42 1270.55L1327.35 1268.15L1322.84 1267.23L1320.55 1262.67Z" fill="#15BFFD"/>
<g filter="url(#filter9_f_1409_215)">
<circle cx="580" cy="639" r="178" fill="#2A3E84"/>
</g>
<g filter="url(#filter10_f_1409_215)">
<circle cx="1776" cy="1417" r="199" fill="#192065"/>
</g>
<defs>
<filter id="filter0_f_1409_215" x="1180" y="3332" width="1056" height="1056" filterUnits="userSpaceOnUse" color-interpolation-filters="sRGB">
<feFlood flood-opacity="0" result="BackgroundImageFix"/>
<feBlend mode="normal" in="SourceGraphic" in2="BackgroundImageFix" result="shape"/>
<feGaussianBlur stdDeviation="175" result="effect1_foregroundBlur_1409_215"/>
</filter>
<filter id="filter1_f_1409_215" x="25" y="4033" width="1056" height="1056" filterUnits="userSpaceOnUse" color-interpolation-filters="sRGB">
<feFlood flood-opacity="0" result="BackgroundImageFix"/>
<feBlend mode="normal" in="SourceGraphic" in2="BackgroundImageFix" result="shape"/>
<feGaussianBlur stdDeviation="175" result="effect1_foregroundBlur_1409_215"/>
</filter>
<filter id="filter2_f_1409_215" x="1200" y="4362" width="1056" height="1056" filterUnits="userSpaceOnUse" color-interpolation-filters="sRGB">
<feFlood flood-opacity="0" result="BackgroundImageFix"/>
<feBlend mode="normal" in="SourceGraphic" in2="BackgroundImageFix" result="shape"/>
<feGaussianBlur stdDeviation="175" result="effect1_foregroundBlur_1409_215"/>
</filter>
<filter id="filter3_f_1409_215" x="1200" y="5768" width="1056" height="1056" filterUnits="userSpaceOnUse" color-interpolation-filters="sRGB">
<feFlood flood-opacity="0" result="BackgroundImageFix"/>
<feBlend mode="normal" in="SourceGraphic" in2="BackgroundImageFix" result="shape"/>
<feGaussianBlur stdDeviation="175" result="effect1_foregroundBlur_1409_215"/>
</filter>
<filter id="filter4_f_1409_215" x="0" y="5429" width="1108" height="1108" filterUnits="userSpaceOnUse" color-interpolation-filters="sRGB">
<feFlood flood-opacity="0" result="BackgroundImageFix"/>
<feBlend mode="normal" in="SourceGraphic" in2="BackgroundImageFix" result="shape"/>
<feGaussianBlur stdDeviation="175" result="effect1_foregroundBlur_1409_215"/>
</filter>
<filter id="filter5_f_1409_215" x="1183" y="0" width="1056" height="1056" filterUnits="userSpaceOnUse" color-interpolation-filters="sRGB">
<feFlood flood-opacity="0" result="BackgroundImageFix"/>
<feBlend mode="normal" in="SourceGraphic" in2="BackgroundImageFix" result="shape"/>
<feGaussianBlur stdDeviation="175" result="effect1_foregroundBlur_1409_215"/>
</filter>
<filter id="filter6_f_1409_215" x="35" y="1461" width="1056" height="1056" filterUnits="userSpaceOnUse" color-interpolation-filters="sRGB">
<feFlood flood-opacity="0" result="BackgroundImageFix"/>
<feBlend mode="normal" in="SourceGraphic" in2="BackgroundImageFix" result="shape"/>
<feGaussianBlur stdDeviation="175" result="effect1_foregroundBlur_1409_215"/>
</filter>
<filter id="filter7_f_1409_215" x="35" y="2290" width="1056" height="1056" filterUnits="userSpaceOnUse" color-interpolation-filters="sRGB">
<feFlood flood-opacity="0" result="BackgroundImageFix"/>
<feBlend mode="normal" in="SourceGraphic" in2="BackgroundImageFix" result="shape"/>
<feGaussianBlur stdDeviation="175" result="effect1_foregroundBlur_1409_215"/>
</filter>
<filter id="filter8_dddddd_1409_215" x="1599.92" y="555.481" width="342.177" height="347.18" filterUnits="userSpaceOnUse" color-interpolation-filters="sRGB">
<feFlood flood-opacity="0" result="BackgroundImageFix"/>
<feColorMatrix in="SourceAlpha" type="matrix" values="0 0 0 0 0 0 0 0 0 0 0 0 0 0 0 0 0 0 127 0" result="hardAlpha"/>
<feOffset/>
<feGaussianBlur stdDeviation="1.82832"/>
<feColorMatrix type="matrix" values="0 0 0 0 0.14902 0 0 0 0 0.0901961 0 0 0 0 0.992157 0 0 0 1 0"/>
<feBlend mode="normal" in2="BackgroundImageFix" result="effect1_dropShadow_1409_215"/>
<feColorMatrix in="SourceAlpha" type="matrix" values="0 0 0 0 0 0 0 0 0 0 0 0 0 0 0 0 0 0 127 0" result="hardAlpha"/>
<feOffset/>
<feGaussianBlur stdDeviation="3.65663"/>
<feColorMatrix type="matrix" values="0 0 0 0 0.14902 0 0 0 0 0.0901961 0 0 0 0 0.992157 0 0 0 1 0"/>
<feBlend mode="normal" in2="effect1_dropShadow_1409_215" result="effect2_dropShadow_1409_215"/>
<feColorMatrix in="SourceAlpha" type="matrix" values="0 0 0 0 0 0 0 0 0 0 0 0 0 0 0 0 0 0 127 0" result="hardAlpha"/>
<feOffset/>
<feGaussianBlur stdDeviation="12.7982"/>
<feColorMatrix type="matrix" values="0 0 0 0 0.14902 0 0 0 0 0.0901961 0 0 0 0 0.992157 0 0 0 1 0"/>
<feBlend mode="normal" in2="effect2_dropShadow_1409_215" result="effect3_dropShadow_1409_215"/>
<feColorMatrix in="SourceAlpha" type="matrix" values="0 0 0 0 0 0 0 0 0 0 0 0 0 0 0 0 0 0 127 0" result="hardAlpha"/>
<feOffset/>
<feGaussianBlur stdDeviation="25.5964"/>
<feColorMatrix type="matrix" values="0 0 0 0 0.14902 0 0 0 0 0.0901961 0 0 0 0 0.992157 0 0 0 1 0"/>
<feBlend mode="normal" in2="effect3_dropShadow_1409_215" result="effect4_dropShadow_1409_215"/>
<feColorMatrix in="SourceAlpha" type="matrix" values="0 0 0 0 0 0 0 0 0 0 0 0 0 0 0 0 0 0 127 0" result="hardAlpha"/>
<feOffset/>
<feGaussianBlur stdDeviation="43.8796"/>
<feColorMatrix type="matrix" values="0 0 0 0 0.14902 0 0 0 0 0.0901961 0 0 0 0 0.992157 0 0 0 1 0"/>
<feBlend mode="normal" in2="effect4_dropShadow_1409_215" result="effect5_dropShadow_1409_215"/>
<feColorMatrix in="SourceAlpha" type="matrix" values="0 0 0 0 0 0 0 0 0 0 0 0 0 0 0 0 0 0 127 0" result="hardAlpha"/>
<feOffset/>
<feGaussianBlur stdDeviation="76.7893"/>
<feColorMatrix type="matrix" values="0 0 0 0 0.14902 0 0 0 0 0.0901961 0 0 0 0 0.992157 0 0 0 1 0"/>
<feBlend mode="normal" in2="effect5_dropShadow_1409_215" result="effect6_dropShadow_1409_215"/>
<feBlend mode="normal" in="SourceGraphic" in2="effect6_dropShadow_1409_215" result="shape"/>
</filter>
<filter id="filter9_f_1409_215" x="52" y="111" width="1056" height="1056" filterUnits="userSpaceOnUse" color-interpolation-filters="sRGB">
<feFlood flood-opacity="0" result="BackgroundImageFix"/>
<feBlend mode="normal" in="SourceGraphic" in2="BackgroundImageFix" result="shape"/>
<feGaussianBlur stdDeviation="175" result="effect1_foregroundBlur_1409_215"/>
</filter>
<filter id="filter10_f_1409_215" x="1227" y="868" width="1098" height="1098" filterUnits="userSpaceOnUse" color-interpolation-filters="sRGB">
<feFlood flood-opacity="0" result="BackgroundImageFix"/>
<feBlend mode="normal" in="SourceGraphic" in2="BackgroundImageFix" result="shape"/>
<feGaussianBlur stdDeviation="175" result="effect1_foregroundBlur_1409_215"/>
</filter>
</defs>
</svg>
