<svg width="76" height="6" viewBox="0 0 76 6" fill="none" xmlns="http://www.w3.org/2000/svg">
<path fill-rule="evenodd" clip-rule="evenodd" d="M5.9375 5.99999L-6.22886e-07 2.99999L5.9375 8.74228e-07L5.9375 2.48038L8.63636 2.48038L8.63636 3.51961L5.9375 3.51961L5.9375 5.99999ZM15.5455 3.51961L12.0909 3.51961L12.0909 2.48038L15.5455 2.48038L15.5455 3.51961ZM22.4545 3.51961L19 3.51961L19 2.48038L22.4545 2.48038L22.4545 3.51961ZM29.3636 3.51961L25.9091 3.51961L25.9091 2.48038L29.3636 2.48038L29.3636 3.51961ZM36.2727 3.51961L32.8182 3.51961L32.8182 2.48039L36.2727 2.48039L36.2727 3.51961ZM43.1818 3.51962L39.7273 3.51961L39.7273 2.48039L43.1818 2.48039L43.1818 3.51962ZM50.0909 3.51962L46.6364 3.51962L46.6364 2.48039L50.0909 2.48039L50.0909 3.51962ZM57 3.51962L53.5455 3.51962L53.5455 2.48039L57 2.48039L57 3.51962ZM63.9091 3.51962L60.4546 3.51962L60.4546 2.48039L63.9091 2.48039L63.9091 3.51962ZM70.8182 3.51962L67.3637 3.51962L67.3637 2.48039L70.8182 2.48039L70.8182 3.51962ZM76 3.51962L74.2728 3.51962L74.2728 2.48039L76 2.48039L76 3.51962Z" fill="url(#paint0_linear_48_239)" fill-opacity="0.7"/>
<defs>
<linearGradient id="paint0_linear_48_239" x1="8.36" y1="0.564792" x2="8.70401" y2="8.80831" gradientUnits="userSpaceOnUse">
<stop stop-color="#15BFFD"/>
<stop offset="1" stop-color="#9C37FD"/>
</linearGradient>
</defs>
</svg>
